<svg width="78" height="78" viewBox="0 0 78 78" fill="none" xmlns="http://www.w3.org/2000/svg">
<path d="M73.7515 4.24844C69.4672 -0.0357738 63.3915 -1.22771 58.9661 1.35025C52.9554 4.85156 34.0495 -6.26328 13.8932 13.893C-6.28822 34.0747 4.86335 52.9349 1.35076 58.9656C-1.2272 63.3913 -0.0355716 69.4669 4.24864 73.7511C8.53483 78.0373 14.6097 79.2261 19.0347 76.6489C25.0405 73.1495 43.9516 84.2613 64.1068 64.1066C84.2884 43.9245 73.1367 25.0644 76.6494 19.034C79.2274 14.6084 78.0357 8.5328 73.7515 4.24844V4.24844ZM70.3383 15.3534C64.4273 25.5008 77.2851 40.5868 58.9361 58.9359C40.5878 77.2846 25.5004 64.4275 15.3542 70.3377C11.8992 72.3497 5.59886 66.1877 7.6619 62.6462C13.5728 52.4987 0.715026 37.4127 19.0641 19.0637C37.4116 0.716042 52.5002 13.5714 62.6467 7.66139C66.1095 5.64436 72.3975 11.8185 70.3383 15.3534ZM44.461 16.6843C44.6697 18.3539 43.4854 19.8769 41.8155 20.0856C33.4601 21.1299 21.1305 33.4594 20.086 41.8152C19.8768 43.4893 18.3494 44.6692 16.6848 44.4606C15.0149 44.2519 13.8306 42.7291 14.0393 41.0594C15.4351 29.8947 29.9085 15.4329 41.0598 14.039C42.7284 13.8305 44.2523 15.0144 44.461 16.6843V16.6843Z" fill="#FAFF00"/>
</svg>
